<svg width="43" height="42" viewBox="0 0 43 42" fill="none" xmlns="http://www.w3.org/2000/svg">
<path d="M39.826 21.1319C39.826 19.6406 39.7025 18.5524 39.4353 17.4238H22.0586V24.1548H32.2583C32.0527 25.8275 30.9423 28.3467 28.4745 30.0394L28.44 30.2647L33.9341 34.4359L34.3148 34.4731C37.8106 31.3091 39.826 26.6538 39.826 21.1319Z" fill="#4285F4"/>
<path d="M22.057 38.8659C27.054 38.8659 31.249 37.2536 34.3131 34.4726L28.4729 30.0388C26.9101 31.1069 24.8125 31.8526 22.057 31.8526C17.1628 31.8526 13.0089 28.6886 11.5281 24.3154L11.3111 24.3335L5.59815 28.6664L5.52344 28.8699C8.56688 34.7949 14.8184 38.8659 22.057 38.8659Z" fill="#34A853"/>
<path d="M11.5296 24.3163C11.1389 23.1878 10.9127 21.9785 10.9127 20.7291C10.9127 19.4795 11.1389 18.2704 11.509 17.1419L11.4987 16.9015L5.71415 12.499L5.52489 12.5872C4.27053 15.0459 3.55078 17.8069 3.55078 20.7291C3.55078 23.6512 4.27053 26.4121 5.52489 28.8708L11.5296 24.3163Z" fill="#FBBC05"/>
<path d="M22.0571 9.60396C25.5324 9.60396 27.8766 11.0751 29.2134 12.3045L34.4366 7.30659C31.2287 4.38443 27.0541 2.59082 22.0571 2.59082C14.8184 2.59082 8.5669 6.66166 5.52344 12.5866L11.5076 17.1412C13.0089 12.768 17.1628 9.60396 22.0571 9.60396Z" fill="#EB4335"/>
</svg>
